<svg xmlns="http://www.w3.org/2000/svg" version="1.2" viewBox="0 0 283.5 77.4">
  <path fill="#2d2d2d" d="M91.8 23.9l-6.2 7.5h-1.1l-6.2-7.5v12.7h-6.5V13.7h5.4l7.8 9 7.9-9h5.4v23h-6.5zm0 0"/>
  <circle stroke="#2d2d2d" fill="transparent" cx="113.9" cy="25.2" r="8.75" stroke-width="6"/>
  <circle stroke="#2d2d2d" fill="transparent" cx="82.3" cy="57.72" r="8.75" stroke-width="6"/>
  <circle stroke="#2d2d2d" fill="transparent" cx="175" cy="57.7" r="8.75" stroke-width="6"/>
  <path fill="#2d2d2d" d="M146.3 13.7v13.6c0 5.7-2.9 9.7-9.4 9.7s-9-3.8-9.3-9.4l6.3-.6c.2 2.6.7 4.2 3 4.2 2.4 0 3-1.7 3-4.4v-13zm0 0"/>
  <path fill="#2d2d2d" d="M157.2 28h5.8l-2.9-8zm-.9-14.3h7.6l8.5 23H166l-1.4-4h-9l-1.3 4h-6.5zm0 0"/>
  <path fill="#2d2d2d" d="M101.9 59.5c-3.7-1-5.4-3-5.4-6.2 0-4.2 3.4-7.4 9.6-7.4 3.2 0 6.5.9 8.3 1.8l-1.8 5.6a14 14 0 00-6.8-2c-1.9 0-2.7.6-2.7 1.6 0 .7.4 1 1.6 1.4l4 1.2c4.2 1.3 6 3.3 6 6.4 0 4.4-3.6 7.6-9.5 7.6-3.4 0-6.8-1.2-8.3-2l1.5-5.6a14 14 0 007 2.2c1.8 0 2.8-.8 2.8-1.8 0-.8-.8-1.3-2.1-1.7zm0 0"/>
  <path fill="#2d2d2d" d="M129.9 52.7v16.4h-6.5V52.7h-6.6v-6.5h19.6v6.5zm0 0"/>
  <path fill="#2d2d2d" d="M145.7 51.8v4.7h4.5c1.6 0 2.5-1 2.5-2.3 0-1.3-.9-2.4-2.5-2.4zm-6.4-5.6h11.6c4.4 0 8.5 2.5 8.5 7.6 0 3.5-2.3 6-5.6 6.8 2 1.7 3.8 3.3 5.7 3.3.6 0 1.6-.1 2.3-.4l.6 5.1a9 9 0 01-4 .9c-5.3 0-9.2-6.5-12.4-8.6h-.3v8.2h-6.5zm0 0"/>
  <path fill="#2d2d2d" d="M191 69.1v-7.9l-1.3.7v-5l1.3-.7v-10h6.5V53l3.2-1.6v5l-3.2 1.7v5.5h11v5.6zm0 0"/>
  <path fill="#2d2d2d" d="M229.1 69.1c-1.7 0-2.7 1-2.7 2.2 0 1 .5 1.6 1.6 1.6.6 0 1.2-.3 1.7-.7l.6 2.6c-.7.5-1.7.8-3.3.8-2.1 0-3.5-1.3-3.5-3.4 0-1.4.9-2.5 1.8-3h-14.2v-23h18.7V52h-12.5v3h10v5.3h-10v3.3h12.5v5.6zm0 0"/>
  <path fill="#2d2d2d" d="M234 46.2h6.5v9h3.4l5.4-9h6.6v1l-7.1 10.9c1.4 1.7 3.3 5.8 5.7 5.8.7 0 1.7-.1 2.3-.4l.6 5.1c-1 .5-2.6.9-4.2.9-5.6 0-8-6.4-10-8.8h-2.7v8.4H234zm0 0"/>
  <path fill="#2d2d2d" d="M268.2 60.5h5.8l-2.9-8zm-.9-14.3h7.7l8.5 23h-6.6l-1.4-4h-8.9l-1.3 4h-6.6zm0 0"/>
  <path fill="url(#a) #2d2d2d" d="M44.9 27.8V0H17.6v6.8h20.5v21h-8v-17H0v58h15.3v-6.9H6.8V17.6h16.5v17h26.1V62H30.7c-9.1 0-16 6.6-16 15.5h7c0-5.3 4.2-8.6 9.4-8.6h25.2v-41zm0 0"/>
  <rect fill="#357ed2" width="5" height="6.25" x="12.6" y="21.6"/>
  <rect fill="#357ed2" width="5" height="6.25" x="12.6" y="31.75"/>
  <rect fill="#3bc1ba" width="5" height="6.25" x="29" y="49"/>
  <rect fill="#3bc1ba" width="5" height="6.25" x="29" y="39"/>
  <rect fill="#3bc1ba" width="5" height="6.25" x="39" y="39"/>
  <rect fill="#3bc1ba" width="5" height="6.25" x="39" y="49"/>
  <linearGradient id="a" x1="0%" y1="0%" y2="90%">
    <stop offset="0%" stop-color="#3041e7"/>
    <stop offset="50%" stop-color="#3bc1ba"/>
    <stop offset="90%" stop-color="#80d913"/>
  </linearGradient>
</svg>
